<svg width="55" height="55" viewBox="0 0 55 55" fill="none" xmlns="http://www.w3.org/2000/svg">
<path d="M42.7523 22.0167C42.7523 18.9289 40.1158 16.4167 36.8751 16.4167C33.6339 16.4167 30.9974 18.9289 30.9974 22.0167C30.9974 24.0961 32.202 25.9941 34.1408 26.97L34.6089 27.2055L34.0997 27.3444C33.5726 27.4886 33.0602 27.6726 32.5765 27.8908L32.3722 27.9829L32.2877 27.7834C31.6259 26.2229 30.061 25.2148 28.3011 25.2148C26.7838 25.2148 25.3617 25.9954 24.5905 27.2526L24.4915 27.4136L24.3148 27.3336C23.7131 27.0613 23.0837 26.8425 22.4436 26.6823L21.8809 26.5418L22.4058 26.3026C24.5677 25.3174 25.9647 23.2134 25.9647 20.9438C25.9647 17.6667 23.1661 15 19.727 15C16.2877 15 13.4891 17.6667 13.4891 20.9438C13.4891 23.2139 14.8859 25.3177 17.0483 26.3029L17.5732 26.5421L17.0105 26.6826C12.2942 27.8602 9 31.9269 9 36.5718V37.2364H21.3645L21.2681 37.5051C21.0016 38.2499 20.8668 39.0156 20.8668 39.7814V40.4461H35.7357V39.7812C35.7357 39.0148 35.601 38.249 35.3345 37.5048L35.2381 37.2361H46.95V36.5715C46.95 32.3143 43.9479 28.5202 39.6493 27.3448L39.1407 27.2059L39.6088 26.9704C41.5479 25.9946 42.7519 24.0963 42.7519 22.0169L42.7523 22.0167ZM28.3015 26.5448C29.9032 26.5448 31.2066 27.7864 31.2066 29.3129C31.2066 30.8394 29.9035 32.081 28.3015 32.081C26.6995 32.081 25.3964 30.8394 25.3964 29.3129C25.3964 27.7864 26.6995 26.5448 28.3015 26.5448ZM14.8847 20.9437C14.8847 18.3989 17.0572 16.3294 19.7274 16.3294C22.3976 16.3294 24.5701 18.3994 24.5701 20.9437C24.5701 23.4879 22.3976 25.5577 19.7274 25.5577C17.0576 25.5577 14.8847 23.4883 14.8847 20.9437ZM22.0792 35.9066H10.4176L10.441 35.6835C10.9178 31.1202 14.9104 27.6793 19.7277 27.6793C21.1998 27.6793 22.6094 27.9982 23.9181 28.6273L24.051 28.6911L24.0335 28.832C24.0118 29.0082 24.0011 29.1655 24.0011 29.3126C24.0011 30.6875 24.723 31.9643 25.9317 32.7283L26.2913 32.9553L25.8835 33.0894C24.3678 33.5882 23.0394 34.557 22.1429 35.8173L22.0792 35.9066ZM22.2966 39.1159L22.3353 38.881C22.7934 36.1129 25.3582 34.0261 28.3011 34.0261C31.2438 34.0261 33.8086 36.1132 34.2663 38.881L34.305 39.1159H22.2966ZM45.5049 35.6818L45.5305 35.9065H34.5222L34.4585 35.8173C33.5623 34.5569 32.234 33.5882 30.7179 33.0894L30.3101 32.9553L30.6697 32.7283C31.8104 32.0076 32.5284 30.7999 32.5903 29.4991L32.596 29.3854L32.701 29.3304C33.9827 28.6567 35.4258 28.3008 36.8747 28.3008C41.3196 28.3005 45.0298 31.4739 45.505 35.6817L45.5049 35.6818ZM36.8746 26.2875C34.4032 26.2875 32.3922 24.3719 32.3922 22.0164C32.3922 19.6615 34.4026 17.7457 36.8746 17.7457C39.3467 17.7457 41.3571 19.6612 41.3571 22.0164C41.3571 24.3716 39.3461 26.2875 36.8746 26.2875Z" fill="#EEB51A"/>
</svg>
