<svg width="12" height="24" viewBox="0 0 12 24" fill="none" xmlns="http://www.w3.org/2000/svg">
<path fill-rule="evenodd" clip-rule="evenodd" d="M2.86283 12.0948V23.6888C2.86283 23.8573 2.99475 23.9892 3.16331 23.9892H7.46525C7.63381 23.9892 7.76573 23.8573 7.76573 23.6888V11.9042H10.8877C11.0417 11.9042 11.1736 11.787 11.1882 11.6257L11.4887 8.07866C11.5034 7.90277 11.3641 7.74886 11.1882 7.74886H7.76573V5.22779C7.76573 4.63417 8.24209 4.1578 8.83572 4.1578H11.2395C11.4081 4.1578 11.54 4.02589 11.54 3.85733V0.310242C11.54 0.141682 11.4081 0.00976562 11.2395 0.00976562H7.1721C4.79028 0.00976562 2.8555 1.94454 2.8555 4.32636V7.74886H0.700867C0.532307 7.74886 0.400391 7.88078 0.400391 8.04934V11.5964C0.400391 11.765 0.532307 11.8969 0.700867 11.8969H2.8555V12.0948H2.86283Z" fill="white"/>
</svg>
