<svg width="25" height="30" viewBox="0 0 25 30" fill="none" xmlns="http://www.w3.org/2000/svg">
<path d="M0 24.563V29.5455C0 29.7966 0.203378 30 0.454467 30H23.9447C24.196 30 24.3991 29.7964 24.3991 29.5455L24.3994 24.563C24.3994 22.5475 23.0374 20.7856 21.0865 20.2773L19.3585 19.8296C20.2306 17.2541 20.7448 14.4534 20.833 11.8059C20.8453 11.7584 20.8549 11.7095 20.8508 11.6577C20.8491 11.6367 20.8407 11.6169 20.838 11.596C20.8431 11.3953 20.8523 11.1926 20.8523 10.994C20.852 4.11027 17.6175 0 12.1999 0C8.16631 0 5.34575 2.28104 4.16627 6.28601C4.13206 6.34842 4.11374 6.41396 4.11085 6.48216C3.74265 7.80987 3.54771 9.31814 3.54771 10.9941C3.54771 13.8724 4.07977 16.9896 5.04148 19.8297L3.31298 20.2776C1.36235 20.7853 0.000398163 22.5473 0.000398163 24.5628L0 24.563ZM16.649 19.1282C15.828 18.9149 15.2164 18.2741 15.0297 17.4671C15.5661 16.9724 16.0721 16.3375 16.5326 15.5719C17.4644 14.0237 18.0796 12.1104 18.2059 10.433C19.3613 10.8819 19.8488 11.341 19.9267 11.6653C19.852 14.2789 19.3454 17.0556 18.476 19.6015L16.649 19.1282ZM7.2138 8.57827C7.23211 8.58598 7.25066 8.59248 7.26898 8.6002C7.33669 8.62863 7.4044 8.65393 7.47212 8.68068C7.58802 8.72646 7.70393 8.77177 7.81935 8.81321C7.88947 8.83827 7.95935 8.86116 8.02923 8.88453C8.14249 8.92261 8.25527 8.95899 8.36804 8.99273C8.4384 9.01369 8.50876 9.03321 8.57913 9.05273C8.69118 9.08357 8.80323 9.11225 8.9148 9.13875C8.98468 9.15538 9.05456 9.17129 9.1242 9.18623C9.23625 9.21008 9.34806 9.23129 9.45986 9.25081C9.5283 9.26286 9.59698 9.27514 9.66517 9.28551C9.77963 9.30286 9.89361 9.31659 10.0073 9.32936C10.0717 9.33659 10.1363 9.34503 10.2006 9.35081C10.3235 9.36189 10.4459 9.36816 10.5683 9.37394C10.6228 9.37635 10.6775 9.38093 10.7317 9.38238C10.9074 9.38695 11.0825 9.38695 11.2568 9.38045C11.511 9.37105 11.7722 9.36816 12.0377 9.37105C12.0782 9.37153 12.1204 9.37394 12.1611 9.37467C12.3847 9.37852 12.6103 9.38503 12.8384 9.39708C12.9086 9.40069 12.9794 9.4072 13.0498 9.41153C13.2486 9.42406 13.4481 9.43756 13.6481 9.45611C13.7404 9.46455 13.8322 9.47587 13.9245 9.48551C14.1018 9.50407 14.279 9.5231 14.4553 9.54599C14.5635 9.55997 14.6705 9.5766 14.778 9.59226C14.9366 9.61515 15.0949 9.63853 15.2513 9.66479C15.3684 9.68455 15.4833 9.70648 15.5987 9.72793C15.7428 9.75467 15.8865 9.7819 16.0274 9.81154C16.1453 9.83612 16.2604 9.86263 16.3756 9.88913C16.5103 9.92022 16.6438 9.95178 16.7747 9.98528C16.8862 10.014 16.9952 10.0438 17.1034 10.074C17.1754 10.0942 17.2448 10.1154 17.3152 10.1364C17.1682 13.2894 14.9325 17.806 12.1991 17.806C9.37062 17.806 7.07496 12.9688 7.07496 9.81189C7.07496 9.36248 7.12146 8.94968 7.21376 8.57813L7.2138 8.57827ZM10.1341 18.0628C10.7985 18.4905 11.4951 18.7153 12.1992 18.7153C12.9034 18.7153 13.6 18.4908 14.2644 18.0628C14.6176 19.0103 15.4037 19.744 16.4203 20.0084L16.5381 20.039C15.2157 21.099 13.76 21.639 12.1992 21.639C10.6385 21.639 9.18283 21.099 7.86036 20.0388L7.97868 20.0082C8.99487 19.7441 9.78089 19.0103 10.1341 18.0629L10.1341 18.0628ZM12.1992 0.909213C16.9391 0.909213 19.7239 4.3271 19.9232 10.3055C19.4401 9.96046 18.7772 9.64578 17.9188 9.36695C17.68 9.28912 17.4299 9.21562 17.1711 9.14646C15.3585 8.66308 13.1098 8.40115 11.2233 8.47197C11.0582 8.47847 10.8924 8.4792 10.7259 8.47414C9.56032 8.43968 8.35913 8.1281 7.12827 7.54326C6.22003 7.11868 5.50532 6.63941 5.09423 6.33769C6.1829 2.84362 8.63765 0.909396 12.1995 0.909396L12.1992 0.909213ZM4.45616 10.9946C4.45616 9.62394 4.59278 8.38685 4.84388 7.27548C5.2381 7.54802 5.7576 7.87356 6.38028 8.18877C6.23956 8.6777 6.16606 9.22063 6.16606 9.81172C6.16606 11.6221 6.81717 13.8292 7.86612 15.5718C8.3266 16.3371 8.83264 16.9723 9.36902 17.4671C9.18227 18.2741 8.57072 18.9148 7.7502 19.1278L5.92245 19.6013C4.97881 16.8372 4.45613 13.7979 4.45613 10.9946L4.45616 10.9946ZM6.79426 20.315C8.38945 21.7719 10.2514 22.5478 12.1994 22.5478C14.1474 22.5478 16.0094 21.7719 17.6046 20.315L20.8574 21.1577C22.4076 21.5611 23.4898 22.9616 23.4898 24.5633V29.0911H19.6092V25.4999C19.6092 25.2488 19.4058 25.0454 19.1547 25.0454C18.9034 25.0454 18.7003 25.2491 18.7003 25.4999V29.0911H5.69828V25.4999C5.69828 25.2488 5.4949 25.0454 5.24381 25.0454C4.99249 25.0454 4.78935 25.2491 4.78935 25.4999V29.0911H0.9088V24.5633C0.9088 22.9618 1.99099 21.5613 3.54066 21.1579L6.79426 20.315Z" fill="black"/>
</svg>
