<svg width="15" height="15" viewBox="0 0 15 15" fill="none" xmlns="http://www.w3.org/2000/svg">
<path d="M7.5 0C3.35729 0 0 3.35729 0 7.5C0 11.6427 3.35729 15 7.5 15C11.6427 15 15 11.6427 15 7.5C15 3.35729 11.6427 0 7.5 0ZM8.6242 11.1345C5.37472 9.53291 4.52769 6.65298 4.40449 5.60575C4.28127 4.55858 6.09859 3.6345 6.09859 3.6345L7.23825 5.57492C7.23825 5.57492 6.00619 6.23708 6.17559 6.59138C7.08419 8.50105 8.2547 9.20942 8.2547 9.20942C8.63971 9.348 9.48676 8.40857 9.48676 8.40857L11.1192 9.94861C11.1344 9.94861 9.76381 11.6889 8.62412 11.1345L8.6242 11.1345Z" fill="white"/>
</svg>
