<svg width="16" height="11" viewBox="0 0 16 11" fill="none" xmlns="http://www.w3.org/2000/svg">
<path fill-rule="evenodd" clip-rule="evenodd" d="M15.4187 1.12891C15.6068 1.4109 15.6068 1.69305 15.6068 1.97503V9.02623C15.6068 9.40232 15.5128 9.68431 15.4187 9.96644L11.5642 6.20587C11.1881 5.73584 10.53 6.39391 11 6.86394L14.7606 10.6245C14.4786 10.9065 14.1025 11.0006 13.6323 11.0006H2.06833C1.5983 11.0006 1.2222 10.9067 0.940069 10.6245L4.70064 6.86394C5.17067 6.39392 4.5126 5.73568 4.04256 6.20587L0.28199 9.96644C0.0939483 9.68445 0 9.40229 0 9.02623V1.97503C0 1.69304 0.0939483 1.41089 0.28199 1.12891L6.11096 6.01782C7.05117 6.76998 8.55538 6.76998 9.49559 6.01782L15.4185 1.12891H15.4187Z" fill="white"/>
<path fill-rule="evenodd" clip-rule="evenodd" d="M2.0677 0H13.6317C14.1017 0 14.4778 0.188042 14.8539 0.376088L8.93104 5.265C8.36689 5.82915 7.33275 5.73503 6.7686 5.265L0.845703 0.376088C1.22179 0.188046 1.59786 0 2.06793 0H2.0677Z" fill="white"/>
</svg>
