<svg width="12" height="15" viewBox="0 0 12 15" fill="none" xmlns="http://www.w3.org/2000/svg">
<path d="M5.62504 0.000107141C4.13353 0.00125808 2.70357 0.594312 1.64877 1.64887C0.594205 2.70354 0.00115177 4.13353 0 5.62515C0 5.74233 0.00470838 5.86423 0.00941669 5.98613C0.257807 10.6923 5.12353 14.7235 5.32951 14.8922C5.41216 14.9618 5.51669 15 5.62476 15C5.73283 15 5.83737 14.9618 5.92001 14.8922C6.12624 14.7235 10.9918 10.6923 11.2401 5.98131C11.2448 5.86412 11.2495 5.74223 11.2495 5.62504C11.2484 4.13353 10.6553 2.70357 9.60075 1.64877C8.54608 0.594204 7.1161 0.00115177 5.62448 0L5.62504 0.000107141ZM5.62504 7.96872C5.00343 7.96872 4.40735 7.7218 3.96781 7.28224C3.52826 6.84269 3.28133 6.24662 3.28133 5.62501C3.28133 5.00341 3.52826 4.40733 3.96781 3.96778C4.40736 3.52824 5.00343 3.2813 5.62504 3.2813C6.24665 3.2813 6.84272 3.52823 7.28227 3.96778C7.72182 4.40733 7.96875 5.00341 7.96875 5.62501C7.96802 6.2464 7.72088 6.84216 7.28155 7.28152C6.84221 7.72088 6.24643 7.968 5.62504 7.96872Z" fill="white"/>
</svg>
