<svg width="111" height="126" viewBox="0 0 111 126" fill="none" xmlns="http://www.w3.org/2000/svg">
<path d="M68.918 2.1167V20.7157C68.918 23.6494 71.2965 26.0304 74.2327 26.0304H92.8318" stroke="#F14046" stroke-width="3" stroke-miterlimit="107.69"/>
<path d="M92.8312 49.8727V28.2314C92.8312 26.8225 92.2711 25.4704 91.2743 24.4736L70.4743 3.67361C69.4775 2.67679 68.1254 2.1167 66.7165 2.1167H7.80301C4.8693 2.1167 2.48828 4.49525 2.48828 7.43142V118.888C2.48828 121.821 4.86683 124.202 7.80301 124.202H42.3463" stroke="#F14046" stroke-width="3" stroke-miterlimit="107.69"/>
<path d="M66.2988 88.9139C63.1356 87.5346 60.9248 84.3813 60.9248 80.7098C60.9248 75.7702 64.9294 71.7656 69.8691 71.7656C74.8088 71.7656 78.8134 75.7702 78.8134 80.7098C78.8134 84.3764 76.605 87.5297 73.4468 88.9089" stroke="#F14046" stroke-width="3" stroke-miterlimit="107.69"/>
<path d="M73.2949 88.8477H74.9481C81.8912 88.8477 87.5169 94.3524 87.5169 101.143V116.3H52.9736V101.143C52.9736 94.3524 58.6017 88.8477 65.5424 88.8477H67.1956" stroke="#F14046" stroke-width="3" stroke-miterlimit="107.69"/>
<path d="M87.5556 78.3396C84.3924 76.9604 82.1816 73.8071 82.1816 70.1356C82.1816 65.196 86.1862 61.1914 91.1259 61.1914C96.0656 61.1914 100.07 65.196 100.07 70.1356C100.07 73.8021 97.8618 76.9555 94.7036 78.3347" stroke="#F14046" stroke-width="3" stroke-miterlimit="107.69"/>
<path d="M79.7734 80.3717C81.7794 79.0467 84.1974 78.272 86.8005 78.272H88.4536" stroke="#F14046" stroke-width="3" stroke-miterlimit="107.69"/>
<path d="M94.5521 78.272H96.2052C103.146 78.272 108.774 83.7767 108.774 90.5669V105.724H87.5176" stroke="#F14046" stroke-width="3" stroke-miterlimit="107.69"/>
<path d="M13.1172 36.5889H66.4765" stroke="#F14046" stroke-width="3" stroke-miterlimit="107.69"/>
<path d="M13.1172 56.96H76.8889" stroke="#F14046" stroke-width="3" stroke-miterlimit="107.69"/>
<path d="M13.1172 77.3291H50.8581" stroke="#F14046" stroke-width="3" stroke-miterlimit="107.69"/>
<path d="M13.1172 97.6997H40.4483" stroke="#F14046" stroke-width="3" stroke-miterlimit="107.69"/>
</svg>
