<svg width="40" height="40" viewBox="0 0 40 40" fill="none" xmlns="http://www.w3.org/2000/svg">
<path d="M19.9963 40C8.96921 40 0 31.0308 0 19.9963C0 8.96921 8.96921 0 19.9963 0C31.0234 0 39.9926 8.96921 39.9926 19.9963C40 31.0308 31.0308 40 19.9963 40ZM26.7453 11.8827C25.9266 11.8827 25.2628 12.5466 25.2628 13.3653C25.2628 14.184 25.9266 14.8479 26.7453 14.8479C27.5641 14.8479 28.2279 14.184 28.2279 13.3653C28.2205 12.5466 27.5641 11.8827 26.7453 11.8827ZM20.166 13.7857C16.7361 13.7857 13.948 16.5739 13.948 20.0037C13.948 23.4335 16.7361 26.2216 20.166 26.2216C23.5958 26.2216 26.3839 23.4335 26.3839 20.0037C26.3839 16.5739 23.5884 13.7857 20.166 13.7857ZM20.166 23.9793C17.9679 23.9793 16.1829 22.1944 16.1829 19.9963C16.1829 17.7983 17.9679 16.0133 20.166 16.0133C22.364 16.0133 24.149 17.7983 24.149 19.9963C24.149 22.1944 22.3566 23.9793 20.166 23.9793ZM32.7051 14.8331C32.7051 10.6436 29.3122 7.2506 25.1226 7.2506H15.1208C10.9312 7.2506 7.53826 10.6436 7.53826 14.8331V24.8423C7.53826 29.0319 10.9312 32.4249 15.1208 32.4249H25.13C29.3196 32.4249 32.7125 29.0319 32.7125 24.8423V14.8331H32.7051ZM30.3301 24.8423C30.3301 27.719 27.9993 30.0498 25.1226 30.0498H15.1208C12.2441 30.0498 9.91333 27.719 9.91333 24.8423V14.8331C9.91333 11.9565 12.2441 9.62567 15.1208 9.62567H25.13C28.0066 9.62567 30.3375 11.9565 30.3375 14.8331V24.8423H30.3301Z" fill="black"/>
</svg>
