<svg width="94" height="126" viewBox="0 0 94 126" fill="none" xmlns="http://www.w3.org/2000/svg">
<path d="M67.7881 2.1167V20.8121C67.7881 23.761 70.179 26.1543 73.1303 26.1543H91.8257" stroke="#F14046" stroke-width="3" stroke-miterlimit="107.69"/>
<path d="M7.28438 124.136C4.36742 124.136 2 121.758 2 118.824V7.42863C2 4.49647 4.36497 2.1167 7.28438 2.1167H65.8591C67.2599 2.1167 68.6043 2.6765 69.5954 3.67279L90.2767 24.4618C91.2678 25.4581 91.8247 26.8095 91.8247 28.2177V116.513C91.8247 120.762 88.395 124.205 84.168 124.202L7.28438 124.136Z" stroke="#F14046" stroke-width="3" stroke-miterlimit="107.69"/>
<path d="M12.7539 55.2495C12.7539 47.5269 15.3801 39.4903 21.3863 36.0692C26.9862 32.8786 30.7431 38.6467 36.4752 38.6467C42.0996 38.6467 45.9642 32.8786 51.3292 35.8706C57.4553 39.2843 60.1965 47.4141 60.1965 55.252L12.7539 55.2495Z" stroke="#F14046" stroke-width="3" stroke-miterlimit="107.69"/>
<path d="M43.7483 20.1451C43.7483 24.1616 40.4907 27.4197 36.4725 27.4197C32.4543 27.4197 29.1992 24.164 29.1992 20.1451C29.1992 16.1263 32.4568 12.8706 36.4725 12.8706C40.4907 12.8706 43.7483 16.1287 43.7483 20.1451Z" stroke="#F14046" stroke-width="3" stroke-miterlimit="107.69"/>
<path d="M20.3438 76.1274H73.4795" stroke="#F14046" stroke-width="3" stroke-miterlimit="107.69"/>
<path d="M20.3438 102.694H73.4795" stroke="#F14046" stroke-width="3" stroke-miterlimit="107.69"/>
<path d="M20.3438 89.4111H73.4795" stroke="#F14046" stroke-width="3" stroke-miterlimit="107.69"/>
</svg>
