<svg width="20" height="26" viewBox="0 0 20 26" fill="none" xmlns="http://www.w3.org/2000/svg">
<path d="M9.79001 4.62184C7.09506 4.62184 4.89501 6.69911 4.89501 9.24367C4.89501 11.7882 7.09506 13.8655 9.79001 13.8655C12.485 13.8655 14.685 11.7882 14.685 9.24367C14.685 6.69893 12.485 4.62184 9.79001 4.62184ZM9.79001 12.723C7.75496 12.723 6.10505 11.165 6.10505 9.24372C6.10505 7.32223 7.75515 5.7644 9.79001 5.7644C11.8251 5.7644 13.475 7.32242 13.475 9.24372C13.475 11.165 11.8251 12.723 9.79001 12.723ZM9.79001 0C4.3725 0 0 4.15437 0 9.24367C0 16.7736 9.79001 25.4461 9.79001 25.4461C9.79001 25.4461 19.58 16.7736 19.58 9.24367C19.58 4.15446 15.2076 0 9.79001 0ZM9.79001 23.7064C9.79001 23.7064 1.21 16.1764 1.21 9.24367C1.21 4.77763 5.05991 1.14248 9.79001 1.14248C14.5201 1.14248 18.37 4.77753 18.37 9.24367C18.37 16.2024 9.79001 23.7064 9.79001 23.7064Z" fill="#EEB51A"/>
</svg>
