<svg width="25" height="30" viewBox="0 0 25 30" fill="none" xmlns="http://www.w3.org/2000/svg">
<path d="M8.29315 18.7018C8.15361 18.7134 8.02131 18.7336 7.88466 18.7485C7.87887 18.7483 7.87405 18.7454 7.86803 18.7454C7.84802 18.7454 7.83091 18.7543 7.81139 18.757C2.98222 19.3159 0 22.1047 0 26.1309V29.5455C0 29.7966 0.203648 30 0.45453 30H23.9757C24.2268 30 24.4302 29.7964 24.4302 29.5455V26.1307C24.4302 22.1175 21.4664 19.3336 16.6639 18.7623C16.6487 18.7587 16.6362 18.7495 16.6203 18.7473C16.6015 18.7447 16.5841 18.7512 16.5655 18.751C16.4224 18.7348 16.2833 18.7138 16.137 18.7018C15.7861 18.6726 15.5215 18.3928 15.5215 18.0508V17.6026C16.6376 16.5766 17.5189 15.1301 18.0019 13.6215C18.7437 13.4764 19.2156 12.9595 19.4388 12.0492C19.5875 11.4477 19.5349 10.9312 19.2826 10.514C19.0758 10.1723 18.7731 9.96212 18.4795 9.83078C19.893 5.399 18.8987 2.17672 15.6511 0.744741C13.4228 -0.237097 10.7822 -0.249128 8.92313 0.714616C7.85887 1.26651 7.13585 2.10303 6.86543 3.08753C5.82239 3.64545 5.13479 4.47594 4.87066 5.50066C4.53519 6.80326 4.90513 8.30039 5.92456 9.8457C5.0895 10.2308 4.74005 11.0237 4.99042 12.0501C5.21165 12.9392 5.66525 13.4508 6.36797 13.6092C6.84998 15.3208 7.78965 16.74 8.90888 17.7053V18.0511C8.90888 18.3933 8.64426 18.6731 8.29336 18.7023L8.29315 18.7018ZM11.7617 22.8884C10.7788 22.3975 8.92147 21.2711 8.42161 19.5985C8.55247 19.5834 8.6761 19.5511 8.7942 19.5072C9.21161 20.1755 10.0804 21.1024 11.7617 21.3395L11.7617 22.8884ZM23.521 26.1309V29.0909H19.9713V25.9225C19.9713 25.6714 19.7677 25.468 19.5168 25.468C19.2657 25.468 19.0623 25.6716 19.0623 25.9225L19.062 29.0909H5.36848V25.9225C5.36848 25.6714 5.16483 25.468 4.91395 25.468C4.66282 25.468 4.45941 25.6716 4.45941 25.9225L4.45917 29.0909H0.909467V26.1309C0.909467 22.7193 3.41564 20.3112 7.51222 19.7065C8.23401 22.5218 11.8914 23.9556 12.0549 24.0182C12.059 24.0199 12.0635 24.0192 12.0679 24.0206C12.1161 24.0375 12.1662 24.0481 12.2171 24.0481C12.2679 24.0481 12.318 24.0375 12.3663 24.0204C12.3703 24.019 12.3749 24.0197 12.379 24.018C12.5427 23.9556 16.2006 22.5231 16.918 19.7062C21.0148 20.3109 23.5214 22.7192 23.5214 26.1307L23.521 26.1309ZM15.6368 19.5072C15.7544 19.5506 15.8771 19.5826 16.0072 19.5978C15.5105 21.2667 13.6543 22.3951 12.6716 22.8872L12.6713 21.3395C14.3569 21.1021 15.2223 20.1759 15.6368 19.5072L15.6368 19.5072ZM18.5561 11.8315C18.4874 12.1116 18.3984 12.301 18.2977 12.4359C18.3702 12.0156 18.4124 11.5977 18.4124 11.1912C18.4124 11.161 18.4119 11.0323 18.4115 10.8735C18.4447 10.9085 18.4792 10.9422 18.505 10.9846C18.6274 11.1875 18.6447 11.4722 18.5561 11.8315V11.8315ZM5.75095 5.72695C5.96231 4.90682 6.55177 4.24284 7.4563 3.80616C7.58427 3.74446 7.67634 3.62612 7.70453 3.48683C7.91228 2.45606 8.70975 1.84897 9.34165 1.52148C10.9662 0.679451 13.2989 0.701353 15.2843 1.57643C18.5544 3.01834 18.5452 6.22971 17.7952 8.96027C16.8876 7.863 15.9164 7.75238 14.8213 7.62732C14.3229 7.57044 13.8076 7.51188 13.2246 7.35715C12.8824 7.26605 12.499 6.96046 12.0929 6.63679C11.4769 6.14587 10.7927 5.60047 9.98052 5.60047C9.81664 5.60047 9.64769 5.62264 9.47296 5.67205C8.13322 6.05018 7.11406 7.09323 6.37438 8.84991C5.73983 7.7155 5.51908 6.6281 5.75094 5.72677L5.75095 5.72695ZM5.87314 11.8323C5.79988 11.5317 5.76445 11.1546 6.02087 10.8762C6.02039 11.0603 6.02015 11.1917 6.02015 11.1977C6.02618 11.6207 6.06811 12.0292 6.12668 12.43C6.02883 12.2952 5.94159 12.108 5.87314 11.8323L5.87314 11.8323ZM7.18684 13.0544C7.1866 13.0534 7.18636 13.0525 7.18588 13.0515C7.02754 12.4324 6.93789 11.8029 6.92921 11.1915C6.92921 11.1266 6.9309 10.4085 6.93307 9.952C7.5852 8.00881 8.49695 6.89271 9.72002 6.54734C10.3119 6.38033 10.9019 6.85052 11.5263 7.34816C11.9876 7.71568 12.4645 8.09598 12.9914 8.23628C13.6389 8.40787 14.2125 8.47343 14.7186 8.53102C15.9374 8.66984 16.6849 8.75877 17.4981 10.1226C17.5007 10.4027 17.5032 11.1138 17.5032 11.1912C17.5032 14.2406 15.0114 18.1376 12.2113 18.1691C12.1987 18.1693 12.1862 18.1693 12.1734 18.1693C11.2738 18.1693 10.4324 17.8083 9.69786 17.2147C9.68026 17.1952 9.65978 17.1807 9.63905 17.1645C8.48323 16.2034 7.59992 14.6661 7.18686 13.0545L7.18684 13.0544ZM12.1802 19.0785C12.1937 19.0785 12.2077 19.0785 12.2212 19.0783C13.0702 19.0686 13.8875 18.7785 14.6353 18.2962C14.6736 18.5403 14.7688 18.7633 14.9069 18.9556C14.5885 19.5058 13.8383 20.3563 12.2159 20.4727C10.6284 20.359 9.87066 19.562 9.52171 18.9571C9.65161 18.7766 9.74728 18.5705 9.78994 18.3437C10.5655 18.813 11.3861 19.0785 12.1802 19.0785L12.1802 19.0785Z" fill="black"/>
</svg>
