<svg width="20" height="24" viewBox="0 0 20 24" fill="none" xmlns="http://www.w3.org/2000/svg">
<path d="M11.5303 17.4191C10.0989 17.309 9.49695 16.5969 8.3738 15.9216C7.87463 18.5422 7.28737 21.0822 5.89261 22.8073C5.48887 23.3138 4.6667 23.0568 4.63734 22.4108C4.42446 18.2339 5.87059 14.9159 6.58265 11.4143C5.23928 9.14603 6.74415 4.58739 9.58504 5.71054C13.0793 7.09061 6.56063 14.1378 10.9357 15.0187C15.5091 15.9363 17.3736 7.08326 14.5401 4.20567C10.4439 0.0507804 2.61862 4.11024 3.58026 10.0636C3.76378 11.1941 4.71075 11.7153 4.59329 12.8311C4.51989 13.5285 3.80049 13.9249 3.16918 13.6313C1.356 12.7871 0.790761 10.9298 0.878851 8.5661C1.04035 4.05152 4.93097 0.894972 8.83627 0.454524C13.7766 -0.0960353 18.4087 2.2677 19.0473 6.91443C19.7594 12.1484 16.8084 17.8228 11.5303 17.4191Z" fill="white"/>
</svg>
