<svg width="41" height="26" viewBox="0 0 41 26" fill="none" xmlns="http://www.w3.org/2000/svg">
<path d="M7.91664 23.5387L8.26198 23.6441C12.2123 24.8348 16.3334 25.4426 20.4796 25.4461C24.6258 25.4426 28.7469 24.8348 32.6971 23.6441L33.0425 23.5387C33.5797 23.378 34.0488 23.0597 34.3823 22.6301C34.7154 22.2009 34.8955 21.6824 34.8963 21.1494V10.5446L40.2349 8.87315C40.6621 8.73976 40.9541 8.36619 40.9637 7.94119C40.9734 7.5158 40.6984 7.13103 40.2771 6.98082L20.8675 0.0643332C20.6259 -0.0214444 20.3599 -0.0214444 20.1183 0.0643332L0.686847 6.98082C0.26592 7.13102 -0.0093833 7.51579 0.000244677 7.94119C0.00987835 8.36623 0.301861 8.7398 0.729457 8.87315L6.0681 10.5446L6.06773 21.1494C6.0681 21.6816 6.24744 22.1998 6.57981 22.629C6.91218 23.0586 7.38016 23.3772 7.91634 23.5386L7.91664 23.5387ZM32.7976 21.1495C32.8087 21.3775 32.6561 21.5833 32.426 21.6516L32.0806 21.757C24.5432 24.0341 16.4416 24.0341 8.90424 21.757L8.5589 21.6516C8.3288 21.5833 8.17614 21.3775 8.18688 21.1495V11.2115L20.155 14.9559C20.3725 15.0238 20.607 15.0238 20.8245 14.9559L32.7974 11.2115L32.7976 21.1495ZM20.4947 2.0765L36.7437 7.85864L20.4947 12.943L4.24568 7.85864L20.4947 2.0765Z" fill="white"/>
</svg>
