<svg width="24" height="20" viewBox="0 0 24 20" fill="none" xmlns="http://www.w3.org/2000/svg">
<path d="M23.4983 2.70037C22.7581 3.03749 21.9446 3.23537 21.1458 3.37461C21.5269 3.30866 22.0839 2.62709 22.3111 2.3486C22.6555 1.92353 22.934 1.43984 23.0952 0.919501C23.1172 0.875529 23.1319 0.824228 23.0879 0.794913C23.0366 0.772927 23.0073 0.787585 22.9633 0.802242C22.0692 1.27861 21.1458 1.63038 20.1638 1.87223C20.0832 1.89422 20.0245 1.87223 19.9732 1.82093C19.8926 1.72566 19.812 1.64504 19.7314 1.57175C19.321 1.21998 18.8739 0.941487 18.3756 0.743613C17.7233 0.47978 17.0051 0.362521 16.2942 0.406493C15.6053 0.450465 14.9311 0.64834 14.3228 0.963473C13.7145 1.28594 13.1649 1.72566 12.7325 2.26065C12.2854 2.81763 11.9556 3.46989 11.7797 4.16611C11.6185 4.83302 11.6332 5.49993 11.7284 6.17417C11.7431 6.2841 11.7358 6.29876 11.6332 6.2841C7.79294 5.71247 4.60496 4.33467 2.01793 1.38854C1.908 1.26395 1.84204 1.26395 1.7541 1.39587C0.625479 3.08879 1.17513 5.81507 2.58224 7.15622C2.77278 7.33211 2.96333 7.51533 3.17586 7.67656C3.10258 7.69121 2.15718 7.58861 1.3217 7.15622C1.21177 7.08293 1.15314 7.1269 1.14582 7.25149C1.13849 7.43471 1.15314 7.60327 1.17513 7.80114C1.39499 9.52339 2.58224 11.1137 4.21654 11.7293C4.40708 11.8099 4.62694 11.8832 4.83215 11.9199C4.45838 12.0151 4.06996 12.0738 3.0073 11.9858C2.87539 11.9638 2.82409 12.0298 2.87539 12.1544C3.67421 14.3383 5.40379 14.9833 6.70096 15.357C6.87685 15.3863 7.04541 15.3863 7.2213 15.4303C7.21397 15.445 7.19931 15.445 7.19199 15.4596C6.75959 16.1119 5.27187 16.6029 4.58297 16.8447C3.32244 17.2845 1.95197 17.4823 0.61815 17.3504C0.405618 17.3211 0.361645 17.3211 0.303016 17.3504C0.244386 17.3871 0.295687 17.4384 0.361645 17.4897C0.632807 17.6656 0.903969 17.8268 1.18979 17.9807C2.03259 18.4277 2.91936 18.7869 3.84277 19.0434C8.60642 20.3552 13.971 19.3951 17.5474 15.8407C20.3543 13.0485 21.3364 9.20092 21.3364 5.35336C21.3364 5.19946 21.5123 5.11884 21.6222 5.03823C22.355 4.48857 22.934 3.82899 23.4763 3.09612C23.6009 2.93489 23.5936 2.78832 23.5936 2.72236C23.5936 2.71503 23.5936 2.70037 23.5936 2.70037C23.5863 2.64174 23.5936 2.6564 23.4983 2.70037Z" fill="white"/>
</svg>
